<svg xmlns="http://www.w3.org/2000/svg" viewBox="0 0 389.45 241.77"><defs><style>.cls-1{opacity:.21}.cls-2,.cls-20{fill:#000201}.cls-3{fill:#f9a948}.cls-4{fill:#ffd297}.cls-5{fill:#d9e1e4}.cls-6{fill:#b4bec1}.cls-42,.cls-64,.cls-7{fill:#fff}.cls-8{fill:#94b5bf}.cls-9{fill:#67f4aa}.cls-10{fill:#29b260}.cls-11,.cls-46{fill:#eceff6}.cls-11,.cls-35{opacity:.47}.cls-12{fill:#ffaf5f}.cls-13,.cls-15{fill:#ce6302}.cls-14,.cls-16,.cls-17,.cls-19,.cls-24,.cls-25,.cls-28,.cls-29,.cls-30,.cls-31,.cls-37,.cls-38,.cls-39,.cls-40,.cls-43,.cls-44,.cls-45,.cls-47,.cls-48,.cls-49,.cls-51,.cls-52,.cls-54,.cls-55,.cls-56,.cls-57,.cls-59,.cls-65,.cls-66{fill:none}.cls-14,.cls-16,.cls-17,.cls-25,.cls-28,.cls-30,.cls-31,.cls-38,.cls-47,.cls-48,.cls-51,.cls-52,.cls-54,.cls-55,.cls-56,.cls-57,.cls-59,.cls-65,.cls-66{stroke:#000}.cls-14,.cls-16,.cls-17,.cls-19,.cls-24,.cls-25,.cls-28,.cls-30,.cls-31,.cls-38,.cls-39,.cls-40,.cls-43,.cls-44,.cls-45,.cls-47,.cls-48,.cls-51,.cls-52,.cls-55,.cls-57,.cls-59{stroke-linecap:round}.cls-14,.cls-16,.cls-17,.cls-19,.cls-24,.cls-25,.cls-28,.cls-30,.cls-31,.cls-38,.cls-39,.cls-40,.cls-43,.cls-44,.cls-45,.cls-47,.cls-48,.cls-51,.cls-52,.cls-55,.cls-57,.cls-59,.cls-66{stroke-linejoin:round}.cls-14{stroke-width:.65px}.cls-15{opacity:.24}.cls-16{stroke-width:.87px}.cls-17{stroke-width:.46px}.cls-18{fill:#645e7f}.cls-19,.cls-24,.cls-39,.cls-40,.cls-43,.cls-44,.cls-45{stroke:#000201}.cls-19{stroke-width:.99px}.cls-20{opacity:.17}.cls-21{fill:#fcc13d}.cls-22{fill:#666491}.cls-23{fill:#7d78a3}.cls-24{stroke-width:.92px}.cls-25{stroke-width:1.46px}.cls-26{fill:#545454}.cls-27{fill:#d6e1e5}.cls-28{stroke-width:1.06px}.cls-29{stroke:#fff}.cls-29,.cls-37,.cls-49,.cls-54,.cls-56,.cls-65{stroke-miterlimit:10}.cls-30{stroke-width:1.26px}.cls-31{stroke-width:1.48px}.cls-32{fill:#a5e5f9}.cls-33{fill:#d4f7ff}.cls-34,.cls-35{fill:#34d0f4}.cls-36{fill:#fdf57a}.cls-37,.cls-49{stroke:#fcb330}.cls-37{stroke-width:2.91px}.cls-38{stroke-width:1.37px}.cls-39{stroke-width:.66px}.cls-40{stroke-width:1.38px}.cls-41{fill:#f29530}.cls-42{opacity:.5}.cls-43{stroke-width:1.34px}.cls-44{stroke-width:.62px}.cls-45{stroke-width:.64px}.cls-48{stroke-width:1.07px}.cls-49,.cls-51,.cls-54{stroke-width:2px}.cls-50{fill:#fcb330}.cls-52{stroke-width:.76px}.cls-53{fill:#af4f00}.cls-54,.cls-65{stroke-linecap:square}.cls-55{stroke-width:1.14px}.cls-56,.cls-57,.cls-65,.cls-66{stroke-width:1.09px}.cls-58{fill:#e87707}.cls-59{stroke-width:.72px}.cls-60{fill:#b25000}.cls-61{fill:#f7575f}.cls-62{fill:#a01d29}.cls-63{fill:#c8d3d9}.cls-64{opacity:.48}</style></defs><g id="Layer_2" data-name="Layer 2"><g id="Layer_1-2" data-name="Layer 1"><g class="cls-1"><path d="M212.76,140.65c-8.7,0-15.62-2.84-20.52-8.43-3.22-3.65-7.26-10.54-8.34-22.62a67,67,0,0,1,.09-13,.46.46,0,0,1,.92.12c0,.23-2.79,22.55,8,34.87,4.71,5.39,11.38,8.12,19.81,8.12a.46.46,0,0,1,0,.92Z" class="cls-2"/><path d="M217.58,140.65c-8.7,0-15.61-2.84-20.52-8.43-3.21-3.65-7.26-10.54-8.34-22.62a67,67,0,0,1,.09-13,.48.48,0,0,1,.52-.4.46.46,0,0,1,.4.52c0,.23-2.79,22.55,8,34.87,4.71,5.39,11.38,8.12,19.81,8.12a.46.46,0,0,1,0,.92Z" class="cls-2"/><rect width="54.88" height="4.59" x="174.53" y="92.32" class="cls-3"/><rect width="54.88" height="1.84" x="174.3" y="92.09" class="cls-4"/><path d="M229.4,97.25H174.53a.57.57,0,0,1-.58-.57V92.09a.58.58,0,0,1,.58-.58H229.4a.58.58,0,0,1,.58.58v4.59A.57.57,0,0,1,229.4,97.25Zm-54.3-1.14h53.73V92.66H175.1Z" class="cls-2"/><rect width="5.74" height="37.66" x="194.73" y="77.62" class="cls-5"/><rect width="2.53" height="37.66" x="197.03" y="77.62" class="cls-6"/><rect width="1.38" height="37.66" x="194.27" y="77.62" class="cls-7"/><path d="M199.9,115.74h-5.74a.58.58,0,0,1-.58-.58V77.51a.58.58,0,0,1,.58-.58h5.74a.57.57,0,0,1,.57.58v37.65A.57.57,0,0,1,199.9,115.74Zm-5.17-1.15h4.59V78.08h-4.59Z" class="cls-2"/><rect width="5.28" height="163.02" x="199.78" y="71.88" class="cls-4"/><rect width="2.76" height="163.02" x="201.85" y="71.88" class="cls-3"/><path d="M199.67,157.18a.56.56,0,0,1-.57-.57h0v-3.09a.57.57,0,0,1,1.14,0v3.09a.57.57,0,0,1-.57.57Z" class="cls-2"/><path d="M199.67,162.31a.56.56,0,0,1-.57-.57v-1.82a.57.57,0,1,1,1.14,0v1.82A.56.56,0,0,1,199.67,162.31Z" class="cls-2"/><path d="M205.18,235.39H199.9a.58.58,0,0,1-.58-.58V164.45a.57.57,0,0,1,.58-.57.56.56,0,0,1,.57.57v69.79h4.14V72.36h-4.14v77.12a.56.56,0,0,1-.57.57.57.57,0,0,1-.58-.57V71.79a.58.58,0,0,1,.58-.58h5.28a.57.57,0,0,1,.57.58v163A.57.57,0,0,1,205.18,235.39Z" class="cls-2"/><path d="M203.11,122.4a.35.35,0,0,1-.34-.35v-3.9a.35.35,0,0,1,.34-.35.35.35,0,0,1,.35.35v3.9A.35.35,0,0,1,203.11,122.4Z" class="cls-2"/><path d="M203.11,178.88a.34.34,0,0,1-.34-.34h0v-3.91a.34.34,0,0,1,.34-.34.35.35,0,0,1,.35.34v3.91a.35.35,0,0,1-.35.34Z" class="cls-2"/><path d="M203.11,173.14a.34.34,0,0,1-.34-.34v-2.3a.34.34,0,0,1,.34-.34.35.35,0,0,1,.35.34v2.3A.35.35,0,0,1,203.11,173.14Z" class="cls-2"/><path d="M178.77,95.07h-3.9a.34.34,0,0,1-.34-.34.35.35,0,0,1,.34-.35h3.9a.35.35,0,0,1,.35.35A.35.35,0,0,1,178.77,95.07Z" class="cls-2"/><path d="M183.83,95.07h-3a.34.34,0,0,1-.34-.34.35.35,0,0,1,.34-.35h3a.35.35,0,0,1,.34.35A.34.34,0,0,1,183.83,95.07Z" class="cls-2"/><path d="M165.23,118.84a.46.46,0,0,1-.12-.91c11.92-3.09,12.33-20.81,12.33-21a.47.47,0,0,1,.47-.46.47.47,0,0,1,.45.47,35.89,35.89,0,0,1-1.71,9.64c-2.17,6.64-6.08,10.87-11.31,12.23Z" class="cls-2"/><path d="M168.44,120.44A.45.45,0,0,1,168,120a.46.46,0,0,1,.35-.45c11.92-3.09,12.32-22.4,12.33-22.6a.46.46,0,0,1,.47-.46.47.47,0,0,1,.45.47,43,43,0,0,1-1.71,10.44c-2.17,7.17-6.08,11.68-11.31,13Z" class="cls-2"/></g><ellipse cx="385.2" cy="217.42" class="cls-8" rx=".51" ry=".54"/><path d="M374.26,206.58c-3-8.9-12.17-13.55-20.54-10.39A17.1,17.1,0,0,0,343,212.39l.06,19,10.27.27,24.32-.09c6.52,0,11.8-5.67,11.77-12.62s-5.33-12.55-11.86-12.53-11.8,5.68-11.77,12.62" class="cls-9"/><path d="M364,219.29h-.05a.92.92,0,0,1-.83-1h0c.16-3,1.42-10.27,9.56-13.11a.86.86,0,0,1,1.1.6.94.94,0,0,1-.56,1.17,12.34,12.34,0,0,0-8.35,11.45A.9.9,0,0,1,364,219.29Z" class="cls-10"/><path d="M389.26,219.12c0,6.94-5.25,12.59-11.78,12.62h-1.72c6.31-3.2,9-11.24,6-18a13,13,0,0,0-7.07-6.84c6.35-1.63,12.73,2.52,14.27,9.26A13.07,13.07,0,0,1,389.26,219.12Z" class="cls-10"/><ellipse cx="381.88" cy="215.13" class="cls-10" rx="1.84" ry="1.96"/><ellipse cx="380.54" cy="218.64" class="cls-10" rx=".87" ry=".93"/><ellipse cx="379.27" cy="216.45" class="cls-10" rx=".39" ry=".59" transform="translate(-0.65 1.15) rotate(-0.17)"/><path d="M373.78,207.1a.49.49,0,0,1-.46-.34,16.78,16.78,0,0,0-4.48-7,.53.53,0,0,1-.07-.72.46.46,0,0,1,.68-.08l0,0a17.83,17.83,0,0,1,4.75,7.41.52.52,0,0,1-.29.65A.45.45,0,0,1,373.78,207.1Z" class="cls-2"/><path d="M367.46,198.55a.44.44,0,0,1-.27-.09,14.36,14.36,0,0,0-1.24-.78.54.54,0,0,1-.22-.69.47.47,0,0,1,.65-.23h0c.45.25.89.54,1.32.83a.54.54,0,0,1,.13.72A.48.48,0,0,1,367.46,198.55Z" class="cls-2"/><path d="M364.52,196.92a.57.57,0,0,1-.18,0,14.79,14.79,0,0,0-7.37-1.06.5.5,0,0,1-.53-.46.52.52,0,0,1,.43-.57,16.13,16.13,0,0,1,1.7-.09,15.66,15.66,0,0,1,6.13,1.21.54.54,0,0,1,.27.67.5.5,0,0,1-.45.33Z" class="cls-2"/><path d="M377.19,232.05l-24.31.09a.52.52,0,0,1,0-1l24.31-.09c6.26,0,11.32-5.44,11.3-12.1s-5.12-12-11.38-12-11.32,5.44-11.29,12.1h0a.49.49,0,1,1-1,0c0-7.23,5.46-13.11,12.26-13.14s12.32,5.81,12.34,13S384,232,377.19,232.05Z" class="cls-2"/><path d="M354,199.63a.6.6,0,0,1-.58-.62.63.63,0,0,1,.35-.57,13.32,13.32,0,0,1,6.45-1,.61.61,0,0,1,.54.66.59.59,0,0,1-.61.58,12.24,12.24,0,0,0-5.92.94A.59.59,0,0,1,354,199.63Z" class="cls-7"/><path d="M350.43,202.44a.59.59,0,0,1-.37-.14.65.65,0,0,1-.08-.87,9.16,9.16,0,0,1,1.39-1.46.56.56,0,0,1,.82.09.65.65,0,0,1-.09.87,8.22,8.22,0,0,0-1.22,1.28A.57.57,0,0,1,350.43,202.44Z" class="cls-7"/><path d="M301.12,53.13a16.91,16.91,0,0,1,33.4-3.81A11,11,0,1,1,345,68.72,11.15,11.15,0,0,1,340.35,70H316.44V70A16.92,16.92,0,0,1,301.12,53.13Z" class="cls-11"/><g class="cls-1"><rect width="60.76" height="61.47" x="292.46" y="152.63" class="cls-12" transform="translate(645.67 366.74) rotate(-180)"/><rect width="8.56" height="3.41" x="344.68" y="198.12" class="cls-13"/><rect width="8.6" height="3.43" x="344.64" y="198.07" class="cls-14"/><rect width="12.06" height="61.78" x="292.46" y="152.33" class="cls-15" transform="translate(596.97 366.43) rotate(-180)"/><rect width="23.9" height="61.47" x="292.56" y="152.63" class="cls-15" transform="translate(609.02 366.74) rotate(-180)"/><polyline points="292.45 179.08 292.45 214.1 353.21 214.1 353.21 194.71" class="cls-16"/><polyline points="353.21 191.46 353.21 152.63 292.45 152.63 292.45 175.51" class="cls-16"/><rect width="6.06" height="2.41" x="336.32" y="161.06" class="cls-13"/><rect width="6.08" height="2.42" x="336.3" y="161.02" class="cls-17"/><rect width="6.06" height="2.41" x="340.58" y="163.52" class="cls-13"/><rect width="6.08" height="2.42" x="340.55" y="163.49" class="cls-17"/><rect width="6.06" height="2.41" x="336.72" y="166.03" class="cls-13"/><rect width="6.08" height="2.42" x="336.69" y="166" class="cls-17"/><rect width="6.06" height="2.41" x="329.3" y="179.46" class="cls-13"/><rect width="6.08" height="2.42" x="329.27" y="179.42" class="cls-17"/><rect width="6.06" height="2.41" x="300.67" y="158.08" class="cls-13"/><rect width="6.08" height="2.42" x="300.65" y="158.05" class="cls-17"/><rect width="6.06" height="2.41" x="330" y="199.7" class="cls-13"/><rect width="6.08" height="2.42" x="329.98" y="199.66" class="cls-17"/><rect width="6.06" height="2.41" x="325.59" y="202.17" class="cls-13"/><rect width="6.08" height="2.42" x="325.56" y="202.13" class="cls-17"/><rect width="6.06" height="2.41" x="295.08" y="208.47" class="cls-13"/><rect width="6.08" height="2.42" x="295.06" y="208.43" class="cls-17"/><rect width="6.06" height="2.41" x="337.73" y="186.06" class="cls-13" transform="translate(681.51 374.54) rotate(-180)"/><rect width="6.08" height="2.42" x="337.73" y="186.03" class="cls-17" transform="translate(681.53 374.48) rotate(-180)"/><rect width="6.06" height="2.41" x="333.47" y="188.53" class="cls-13" transform="translate(673 379.46) rotate(-180)"/><rect width="6.08" height="2.42" x="333.47" y="188.49" class="cls-17" transform="translate(673.02 379.41) rotate(-180)"/><rect width="6.06" height="2.41" x="337.33" y="191.04" class="cls-13" transform="translate(680.72 384.49) rotate(-180)"/><rect width="6.08" height="2.42" x="337.33" y="191" class="cls-17" transform="translate(680.74 384.43) rotate(-180)"/><circle cx="322.81" cy="155.79" r=".41" class="cls-13"/><circle cx="301.26" cy="201.47" r=".41" class="cls-13"/><circle cx="326.93" cy="155.09" r=".29" class="cls-13"/><circle cx="348.43" cy="206.71" r=".29" class="cls-13"/><circle cx="306.2" cy="205.12" r=".29" class="cls-13"/><circle cx="350.37" cy="193.64" r=".29" class="cls-13"/><circle cx="349.49" cy="187.45" r=".35" class="cls-13"/><circle cx="347.72" cy="185.89" r=".35" class="cls-13"/><circle cx="319.45" cy="162.68" r=".71" class="cls-13"/></g><circle cx="350.66" cy="58.57" r="9.84" class="cls-18"/><circle cx="350.66" cy="58.57" r="9.84" class="cls-19"/><path d="M360.05,58.57a9.84,9.84,0,0,1-12,9.61,9.84,9.84,0,0,0,0-19.22,9.84,9.84,0,0,1,12,9.61Z" class="cls-20"/><polyline points="360.24 59.42 356.73 82.91 343.87 82.91 341.2 59.47" class="cls-21"/><rect width="6.19" height="141.17" x="347.07" y="91.62" class="cls-22"/><rect width="3.87" height="141.17" x="347.61" y="91.62" class="cls-23"/><path d="M347.2,233.6h6.2a.68.68,0,0,0,.67-.68V150.41a.68.68,0,0,0-1.35,0v81.84h-4.84V92.42h4.84v40.43a.68.68,0,1,0,1.35,0V91.75a.67.67,0,0,0-.67-.67h-6.2a.67.67,0,0,0-.67.67V232.92A.68.68,0,0,0,347.2,233.6Z" class="cls-2"/><path d="M349.36,167.09a.4.4,0,0,0,.4-.4h0v-4.58a.41.41,0,1,0-.81,0v4.58a.4.4,0,0,0,.41.4Z" class="cls-2"/><path d="M349.36,160.36a.4.4,0,0,0,.4-.41v-2.69a.41.41,0,0,0-.81,0V160A.41.41,0,0,0,349.36,160.36Z" class="cls-2"/><path d="M350.66,106.72a.41.41,0,0,0,.41-.41h0v-4.58a.41.41,0,0,0-.81,0v4.58a.4.4,0,0,0,.4.41Z" class="cls-2"/><path d="M350.66,100a.4.4,0,0,0,.41-.4V96.89a.41.41,0,1,0-.81,0v2.69A.4.4,0,0,0,350.66,100Z" class="cls-2"/><rect width="13.83" height="3.83" x="342.82" y="173.02" class="cls-18"/><rect width="13.83" height="3.83" x="342.82" y="173.02" class="cls-24"/><rect width="13.83" height="3.83" x="342.82" y="149.99" class="cls-18"/><rect width="13.83" height="3.83" x="342.82" y="149.99" class="cls-24"/><g class="cls-1"><rect width="60.76" height="61.47" x="171.63" y="152.63" class="cls-12"/><rect width="8.56" height="3.41" x="171.6" y="198.12" class="cls-13" transform="translate(351.77 399.65) rotate(-180)"/><rect width="8.6" height="3.43" x="171.6" y="198.07" class="cls-14" transform="translate(351.8 399.57) rotate(-180)"/><rect width="12.06" height="61.78" x="220.33" y="152.33" class="cls-15"/><rect width="23.9" height="61.47" x="208.38" y="152.63" class="cls-15"/><polyline points="232.39 179.08 232.39 214.1 171.63 214.1 171.63 194.71" class="cls-16"/><polyline points="171.63 191.46 171.63 152.63 232.39 152.63 232.39 175.51" class="cls-16"/><rect width="6.06" height="2.41" x="182.46" y="161.06" class="cls-13" transform="translate(370.99 324.53) rotate(-180)"/><rect width="6.08" height="2.42" x="182.46" y="161.02" class="cls-17" transform="translate(371.01 324.47) rotate(-180)"/><rect width="6.06" height="2.41" x="178.21" y="163.52" class="cls-13" transform="translate(362.47 329.45) rotate(-180)"/><rect width="6.08" height="2.42" x="178.21" y="163.49" class="cls-17" transform="translate(362.5 329.4) rotate(-180)"/><rect width="6.06" height="2.41" x="182.07" y="166.03" class="cls-13" transform="translate(370.2 334.48) rotate(-180)"/><rect width="6.08" height="2.42" x="182.07" y="166" class="cls-17" transform="translate(370.22 334.42) rotate(-180)"/><rect width="6.06" height="2.41" x="189.49" y="179.46" class="cls-13" transform="translate(385.04 361.33) rotate(-180)"/><rect width="6.08" height="2.42" x="189.49" y="179.42" class="cls-17" transform="translate(385.06 361.27) rotate(-180)"/><rect width="6.06" height="2.41" x="218.11" y="158.08" class="cls-13" transform="translate(442.28 318.58) rotate(-180)"/><rect width="6.08" height="2.42" x="218.11" y="158.05" class="cls-17" transform="translate(442.3 318.52) rotate(-180)"/><rect width="6.06" height="2.41" x="188.78" y="199.7" class="cls-13" transform="translate(383.62 401.8) rotate(-180)"/><rect width="6.08" height="2.42" x="188.78" y="199.66" class="cls-17" transform="translate(383.65 401.74) rotate(-180)"/><rect width="6.06" height="2.41" x="193.2" y="202.17" class="cls-13" transform="translate(392.46 406.75) rotate(-180)"/><rect width="6.08" height="2.42" x="193.2" y="202.13" class="cls-17" transform="translate(392.48 406.69) rotate(-180)"/><rect width="6.06" height="2.41" x="223.7" y="208.47" class="cls-13" transform="translate(453.47 419.35) rotate(-180)"/><rect width="6.08" height="2.42" x="223.7" y="208.43" class="cls-17" transform="translate(453.49 419.29) rotate(-180)"/><rect width="6.06" height="2.41" x="181.06" y="186.06" class="cls-13"/><rect width="6.08" height="2.42" x="181.03" y="186.03" class="cls-17"/><rect width="6.06" height="2.41" x="185.32" y="188.53" class="cls-13"/><rect width="6.08" height="2.42" x="185.29" y="188.49" class="cls-17"/><rect width="6.06" height="2.41" x="181.45" y="191.04" class="cls-13"/><rect width="6.08" height="2.42" x="181.43" y="191" class="cls-17"/><circle cx="202.03" cy="155.79" r=".41" class="cls-13"/><circle cx="223.59" cy="201.47" r=".41" class="cls-13"/><circle cx="197.91" cy="155.09" r=".29" class="cls-13"/><circle cx="176.42" cy="206.71" r=".29" class="cls-13"/><circle cx="218.64" cy="205.12" r=".29" class="cls-13"/><circle cx="174.47" cy="193.64" r=".29" class="cls-13"/><circle cx="175.36" cy="187.45" r=".35" class="cls-13"/><circle cx="177.12" cy="185.89" r=".35" class="cls-13"/><circle cx="205.39" cy="162.68" r=".71" class="cls-13"/></g><g class="cls-1"><rect width="60.76" height="61.47" x="42.16" y="152.63" class="cls-12"/><rect width="8.56" height="3.41" x="42.14" y="198.12" class="cls-13" transform="translate(92.84 399.65) rotate(-180)"/><rect width="8.6" height="3.43" x="42.14" y="198.07" class="cls-14" transform="translate(92.87 399.57) rotate(-180)"/><rect width="12.06" height="61.78" x="90.87" y="152.33" class="cls-15"/><rect width="23.9" height="61.47" x="78.92" y="152.63" class="cls-15"/><polyline points="102.92 179.08 102.92 214.1 42.16 214.1 42.16 194.71" class="cls-16"/><polyline points="42.16 191.46 42.16 152.63 102.92 152.63 102.92 175.51" class="cls-16"/><rect width="6.06" height="2.41" x="53" y="161.06" class="cls-13" transform="translate(112.06 324.53) rotate(-180)"/><rect width="6.08" height="2.42" x="53" y="161.02" class="cls-17" transform="translate(112.08 324.47) rotate(-180)"/><rect width="6.06" height="2.41" x="48.74" y="163.52" class="cls-13" transform="translate(103.54 329.45) rotate(-180)"/><rect width="6.08" height="2.42" x="48.74" y="163.49" class="cls-17" transform="translate(103.57 329.4) rotate(-180)"/><rect width="6.06" height="2.41" x="52.6" y="166.03" class="cls-13" transform="translate(111.27 334.48) rotate(-180)"/><rect width="6.08" height="2.42" x="52.6" y="166" class="cls-17" transform="translate(111.29 334.42) rotate(-180)"/><rect width="6.06" height="2.41" x="60.02" y="179.46" class="cls-13" transform="translate(126.11 361.33) rotate(-180)"/><rect width="6.08" height="2.42" x="60.02" y="179.42" class="cls-17" transform="translate(126.13 361.27) rotate(-180)"/><rect width="6.06" height="2.41" x="88.64" y="158.08" class="cls-13" transform="translate(183.35 318.58) rotate(-180)"/><rect width="6.08" height="2.42" x="88.64" y="158.05" class="cls-17" transform="translate(183.37 318.52) rotate(-180)"/><rect width="6.06" height="2.41" x="59.32" y="199.7" class="cls-13" transform="translate(124.69 401.8) rotate(-180)"/><rect width="6.08" height="2.42" x="59.32" y="199.66" class="cls-17" transform="translate(124.72 401.74) rotate(-180)"/><rect width="6.06" height="2.41" x="63.73" y="202.17" class="cls-13" transform="translate(133.53 406.75) rotate(-180)"/><rect width="6.08" height="2.42" x="63.73" y="202.13" class="cls-17" transform="translate(133.55 406.69) rotate(-180)"/><rect width="6.06" height="2.41" x="94.24" y="208.47" class="cls-13" transform="translate(194.54 419.35) rotate(-180)"/><rect width="6.08" height="2.42" x="94.24" y="208.43" class="cls-17" transform="translate(194.56 419.29) rotate(-180)"/><rect width="6.06" height="2.41" x="51.59" y="186.06" class="cls-13"/><rect width="6.08" height="2.42" x="51.57" y="186.03" class="cls-17"/><rect width="6.06" height="2.41" x="55.85" y="188.53" class="cls-13"/><rect width="6.08" height="2.42" x="55.83" y="188.49" class="cls-17"/><rect width="6.06" height="2.41" x="51.99" y="191.04" class="cls-13"/><rect width="6.08" height="2.42" x="51.97" y="191" class="cls-17"/><circle cx="72.57" cy="155.79" r=".41" class="cls-13"/><circle cx="94.12" cy="201.47" r=".41" class="cls-13"/><circle cx="68.45" cy="155.09" r=".29" class="cls-13"/><circle cx="46.95" cy="206.71" r=".29" class="cls-13"/><circle cx="89.17" cy="205.12" r=".29" class="cls-13"/><circle cx="45.01" cy="193.64" r=".29" class="cls-13"/><circle cx="45.89" cy="187.45" r=".35" class="cls-13"/><circle cx="47.66" cy="185.89" r=".35" class="cls-13"/><circle cx="75.92" cy="162.68" r=".71" class="cls-13"/></g><line x1="365.09" x2="354.74" y1="228.18" y2="228.18" class="cls-25"/><rect width="6.73" height="44.16" x="324.56" y="157.31" class="cls-5"/><rect width="2.96" height="44.16" x="325.63" y="157.31" class="cls-6"/><rect width="1.62" height="44.16" x="330.21" y="157.31" class="cls-7"/><path d="M324.56,201.33V157.17a.67.67,0,0,1,.67-.67H332a.67.67,0,0,1,.67.67v44.16a.67.67,0,0,1-.67.67h-6.73A.67.67,0,0,1,324.56,201.33Zm6.73-43.48H325.9v42.81h5.39Z" class="cls-2"/><path d="M352.84,212.54a.4.4,0,0,0,.4-.4v-4.58a.41.41,0,0,0-.81,0v4.58A.4.4,0,0,0,352.84,212.54Z" class="cls-2"/><circle cx="355.62" cy="195.87" r="8.54" class="cls-8"/><circle cx="355.62" cy="195.87" r="8.54" class="cls-26"/><circle cx="355.62" cy="195.87" r="8.54" class="cls-25"/><circle cx="347.01" cy="195.28" r="8.54" class="cls-8"/><circle cx="347.01" cy="195.28" r="8.54" class="cls-26"/><circle cx="347.01" cy="195.28" r="8.54" class="cls-25"/><circle cx="335.9" cy="196.31" r="8.54" class="cls-8"/><circle cx="335.9" cy="196.31" r="8.54" class="cls-26"/><circle cx="335.9" cy="196.31" r="8.54" class="cls-25"/><path d="M324,192.48c.44,0,34.62-2.77,34.62-2.77v-4.82s-27.17-.88-36.52,3.5" class="cls-27"/><rect width="35.1" height="39.04" x="322.49" y="193.91" class="cls-27" transform="translate(680.08 426.85) rotate(-180)"/><rect width="2.26" height="39.04" x="355.32" y="193.91" class="cls-7" transform="translate(712.91 426.85) rotate(-180)"/><rect width="6.95" height="39.04" x="325.12" y="193.91" class="cls-8" transform="translate(657.19 426.85) rotate(-180)"/><rect width="35.1" height="39.04" x="322.49" y="193.91" class="cls-25" transform="translate(680.08 426.85) rotate(-180)"/><path d="M352.68,208.18v18.43" class="cls-28"/><path d="M348,198.18v28.43" class="cls-28"/><path d="M355.4,185.94s-13.21-.15-20.37.8" class="cls-29"/><path d="M324,192.48c.44,0,34.62-2.77,34.62-2.77v-4.82s-27.17-.88-36.52,3.5" class="cls-30"/><circle cx="332.22" cy="228.55" r="2.08" class="cls-8"/><circle cx="333.57" cy="224.06" r=".37" class="cls-8"/><circle cx="341.6" cy="228" r=".37" class="cls-8"/><circle cx="333.09" cy="200.72" r="1.86" class="cls-8"/><circle cx="340.51" cy="201.86" r=".58" class="cls-8"/><circle cx="339.15" cy="207.95" r=".55" class="cls-8"/><circle cx="334.7" cy="214.53" r=".33" class="cls-8"/><rect width="16.36" height="24.54" x="83.39" y=".74" class="cls-5"/><rect width="16.36" height="3.58" x="83.39" y=".74" class="cls-7"/><rect width="16.36" height="2.59" x="83.39" y="11.66" class="cls-6"/><polyline points="83.39 4.61 83.39 .74 99.75 .74 99.75 25.27 83.39 25.27 83.39 8.68" class="cls-31"/><circle cx="86.82" cy="11.77" r="1.24" class="cls-6"/><circle cx="90.4" cy="10.16" r=".51" class="cls-6"/><circle cx="87.3" cy="8.81" r=".26" class="cls-6"/><line x1="31.64" x2="41.99" y1="225.75" y2="225.75" class="cls-25"/><path d="M218.21,183.55c-9.72,3.09-18.45,2.38-25.92-2.13-4.89-2.94-11.86-9.2-17.36-22.3a77.86,77.86,0,0,1-4.52-14.55.54.54,0,1,1,1.07-.19c.05.27,4.9,26.2,21.38,36.11,7.19,4.34,15.61,5,25,2a.54.54,0,0,1,.32,1Z" class="cls-2"/><path d="M223.6,181.83c-9.72,3.09-18.46,2.38-25.93-2.13-4.89-2.93-11.85-9.19-17.36-22.3a78.71,78.71,0,0,1-4.51-14.54.54.54,0,1,1,1.07-.19c0,.26,4.9,26.19,21.38,36.11,7.19,4.34,15.61,5,25,2a.54.54,0,1,1,.33,1Z" class="cls-2"/><rect width="6.73" height="44.16" x="65.44" y="159.18" class="cls-5"/><rect width="2.96" height="44.16" x="68.13" y="159.18" class="cls-6"/><rect width="1.62" height="44.16" x="64.9" y="159.18" class="cls-7"/><path d="M71.5,203.88H64.77a.67.67,0,0,1-.67-.67V159.05a.67.67,0,0,1,.67-.67H71.5a.67.67,0,0,1,.67.67v44.16A.67.67,0,0,1,71.5,203.88Zm-6.06-1.35h5.39V159.72H65.44Z" class="cls-2"/><rect width="6.73" height="44.16" x="170.51" y="132.55" class="cls-5"/><rect width="2.96" height="44.16" x="171.59" y="132.55" class="cls-6"/><rect width="1.62" height="44.16" x="176.17" y="132.55" class="cls-7"/><path d="M170.51,176.57V132.41a.68.68,0,0,1,.68-.67h6.73a.67.67,0,0,1,.67.67v44.16a.68.68,0,0,1-.67.68h-6.73A.69.69,0,0,1,170.51,176.57Zm6.74-43.48h-5.39V175.9h5.39Z" class="cls-2"/><rect width="123.72" height="100.66" x="201.43" y="132.99" class="cls-32"/><rect width="3.18" height="100.66" x="201.43" y="132.99" class="cls-33"/><polygon points="325.15 233.65 299.15 233.65 299.15 114.99 325.15 132.99 325.15 233.65" class="cls-34"/><polygon points="302.66 233.65 276.66 233.65 276.66 114.99 302.66 132.99 302.66 233.65" class="cls-35"/><rect width="57.55" height="3.09" x="209.67" y="218.41" class="cls-34"/><rect width="57.12" height="49.08" x="209.73" y="169.04" class="cls-36"/><rect width="53.9" height="46.31" x="211.32" y="170.42" class="cls-37"/><polygon points="219.31 218.04 213.18 218.04 228.27 169.42 234.4 169.42 219.31 218.04" class="cls-7"/><polygon points="229.27 218.04 223.14 218.04 238.24 169.42 244.36 169.42 229.27 218.04" class="cls-7"/><rect width="57.12" height="49.08" x="209.73" y="169.04" class="cls-38"/><rect width="57.12" height="8.19" x="209.73" y="155.96" class="cls-7"/><circle cx="249.64" cy="190.61" r="1.63" class="cls-39"/><line x1="248.76" x2="245.3" y1="191.98" y2="203.78" class="cls-39"/><line x1="250.18" x2="253.48" y1="192.15" y2="203.78" class="cls-39"/><rect width="23.44" height="7.49" x="238.67" y="203.78" class="cls-7"/><rect width="23.44" height="7.49" x="238.67" y="203.78" class="cls-40"/><polyline points="313.56 233.29 313.56 174.79 279.75 174.79 279.75 233.29" class="cls-4"/><polyline points="313.56 212.75 313.56 206.25 279.75 206.25 279.75 212.75" class="cls-41"/><polygon points="297.22 174.79 294.42 174.79 279.23 196.79 279.27 200.93 297.22 174.79" class="cls-42"/><polygon points="306.74 174.79 303.4 174.79 284.54 202.1 284.58 206.25 306.74 174.79" class="cls-7"/><polygon points="313.24 174.79 308.52 174.79 289.66 202.1 291.09 206.25 313.24 174.79" class="cls-7"/><polyline points="313.56 232.88 313.56 174.37 279.75 174.37 279.75 232.88" class="cls-43"/><polyline points="310.3 232.6 310.3 177.66 282.84 177.66 282.84 232.6" class="cls-24"/><rect width="40.12" height="10.23" x="276.5" y="200.01" class="cls-4"/><rect width="40.12" height="4" x="276.5" y="206.25" class="cls-3"/><rect width="40.12" height="10.23" x="276.5" y="200.03" class="cls-43"/><circle cx="310.3" cy="205.15" r="2.47" class="cls-7"/><circle cx="310.3" cy="205.15" r="2.47" class="cls-44"/><line x1="276.5" x2="285.66" y1="203.07" y2="203.07" class="cls-45"/><line x1="276.5" x2="281.52" y1="204.66" y2="204.66" class="cls-45"/><circle cx="295.12" cy="183.07" r="1.58" class="cls-45"/><line x1="294.27" x2="290.91" y1="184.4" y2="195.84" class="cls-45"/><line x1="295.64" x2="298.84" y1="184.56" y2="195.84" class="cls-45"/><rect width="22.72" height="7.26" x="284.48" y="195.84" class="cls-7"/><rect width="22.72" height="7.26" x="284.48" y="195.84" class="cls-43"/><circle cx="277.35" cy="223.54" r=".15" class="cls-8"/><circle cx="321.17" cy="227.49" r=".58" class="cls-34"/><circle cx="320.44" cy="221.79" r=".73" class="cls-34"/><circle cx="319" cy="224.71" r=".37" class="cls-34"/><circle cx="205.37" cy="217.5" r=".66" class="cls-8"/><circle cx="222.63" cy="225.78" r=".4" class="cls-34"/><circle cx="226.52" cy="227.27" r=".63" class="cls-34"/><circle cx="238.17" cy="229.1" r=".29" class="cls-34"/><circle cx="258.18" cy="227.49" r=".51" class="cls-34"/><circle cx="259.04" cy="224.12" r=".34" class="cls-34"/><circle cx="235.2" cy="225.78" r=".4" class="cls-34"/><circle cx="270.92" cy="228.81" r=".46" class="cls-34"/><circle cx="249.49" cy="228.18" r=".29" class="cls-34"/><circle cx="244.18" cy="223.32" r=".57" class="cls-34"/><circle cx="273.52" cy="218.77" r=".29" class="cls-34"/><circle cx="247.13" cy="227.89" r=".29" class="cls-34"/><circle cx="227.33" cy="231.44" r=".23" class="cls-34"/><circle cx="249.21" cy="229.29" r=".29" class="cls-34"/><rect width="123.72" height="100.66" x="201.43" y="132.64" class="cls-38"/><path d="M107.67,74.42A26.26,26.26,0,0,0,55.8,68.5a17.12,17.12,0,1,0-9,32.16v0H83.89v-.12A26.26,26.26,0,0,0,107.67,74.42Z" class="cls-46"/><path d="M142.28,20.87a16.92,16.92,0,0,1,33.41-3.82,11,11,0,1,1,5.82,20.71v0H157.6V37.7A16.91,16.91,0,0,1,142.28,20.87Z" class="cls-11"/><path d="M191.21,204.31a20.82,20.82,0,0,0-40.44,7.08l.08,23.07,13.3.33,31.48-.11a15.3,15.3,0,1,0-15.36-15.25" class="cls-9"/><path d="M177.88,219.79h-.07a1.13,1.13,0,0,1-1.06-1.2h0a17.26,17.26,0,0,1,12.37-16,1.13,1.13,0,1,1,.7,2.15A15,15,0,0,0,179,218.72,1.14,1.14,0,0,1,177.88,219.79Z" class="cls-10"/><path d="M210.63,219.58a15.3,15.3,0,0,1-15.25,15.35h-2.23a16.39,16.39,0,0,0-1.42-30.18A15.29,15.29,0,0,1,210.2,216,15.67,15.67,0,0,1,210.63,219.58Z" class="cls-10"/><circle cx="201.08" cy="214.72" r="2.38" class="cls-10"/><circle cx="199.34" cy="218.99" r="1.13" class="cls-10"/><ellipse cx="197.7" cy="216.33" class="cls-10" rx=".5" ry=".72" transform="translate(-0.77 0.71) rotate(-0.2)"/><path d="M190.58,204.94a.63.63,0,0,1-.59-.41,20.21,20.21,0,0,0-5.8-8.48.63.63,0,0,1,.78-1s0,0,0,0a21.56,21.56,0,0,1,6.16,9,.63.63,0,0,1-.38.81A.5.5,0,0,1,190.58,204.94Z" class="cls-2"/><path d="M182.4,194.54a.74.74,0,0,1-.35-.1,18.3,18.3,0,0,0-1.6-1,.63.63,0,1,1,.56-1.12l0,0c.58.31,1.15.65,1.71,1a.64.64,0,0,1,.17.87A.63.63,0,0,1,182.4,194.54Z" class="cls-2"/><path d="M178.6,192.56a.67.67,0,0,1-.24,0,20.27,20.27,0,0,0-9.53-1.29.63.63,0,0,1-.7-.56.64.64,0,0,1,.57-.69c.72-.07,1.46-.11,2.19-.11a21.29,21.29,0,0,1,7.93,1.47.63.63,0,0,1,.35.82.62.62,0,0,1-.57.39Z" class="cls-2"/><path d="M195,235.31l-31.49.11a.62.62,0,0,1-.62-.62.61.61,0,0,1,.62-.63l31.48-.12a14.67,14.67,0,1,0-14.73-14.62h0a.61.61,0,0,1-.62.63.63.63,0,0,1-.63-.62,15.93,15.93,0,1,1,16,15.87Z" class="cls-2"/><path d="M165,195.86a.75.75,0,0,1-.75-.76.73.73,0,0,1,.45-.69,18.21,18.21,0,0,1,8.35-1.27.76.76,0,0,1-.1,1.51,16.74,16.74,0,0,0-7.66,1.15A.72.72,0,0,1,165,195.86Z" class="cls-7"/><path d="M160.35,199.28a.73.73,0,0,1-.47-.17.76.76,0,0,1-.11-1.06,11.22,11.22,0,0,1,1.8-1.78.76.76,0,0,1,1.06.11.75.75,0,0,1-.12,1.06,9.65,9.65,0,0,0-1.57,1.56A.83.83,0,0,1,160.35,199.28Z" class="cls-7"/><path d="M56.28,123c-10.2,0-18.31-3.33-24.06-9.89-3.77-4.28-8.51-12.36-9.78-26.52a77.51,77.51,0,0,1,.11-15.23.54.54,0,0,1,1.07.14c0,.27-3.27,26.45,9.43,40.9,5.53,6.31,13.35,9.52,23.23,9.52a.54.54,0,0,1,.54.54A.54.54,0,0,1,56.28,123Z" class="cls-2"/><path d="M61.93,123c-10.2,0-18.31-3.33-24.06-9.89-3.77-4.28-8.51-12.36-9.78-26.52a78.28,78.28,0,0,1,.11-15.23.54.54,0,0,1,.61-.46.53.53,0,0,1,.47.6c0,.27-3.27,26.45,9.42,40.9,5.53,6.31,13.35,9.52,23.23,9.52a.54.54,0,0,1,.54.54A.54.54,0,0,1,61.93,123Z" class="cls-2"/><rect width="64.35" height="5.39" x="11.45" y="66.33" class="cls-3"/><rect width="64.35" height="2.15" x="11.18" y="66.06" class="cls-4"/><path d="M75.8,72.12H11.45a.68.68,0,0,1-.68-.68V66.06a.68.68,0,0,1,.68-.67H75.8a.67.67,0,0,1,.67.67v5.38A.67.67,0,0,1,75.8,72.12ZM12.12,70.77h63v-4h-63Z" class="cls-2"/><rect width="6.73" height="44.16" x="35.14" y="49.1" class="cls-5"/><rect width="2.96" height="44.16" x="37.83" y="49.1" class="cls-6"/><rect width="1.62" height="44.16" x="34.6" y="49.1" class="cls-7"/><path d="M41.2,93.79H34.47a.67.67,0,0,1-.67-.67V49a.67.67,0,0,1,.67-.67H41.2a.67.67,0,0,1,.67.67V93.12A.67.67,0,0,1,41.2,93.79Zm-6.06-1.34h5.39V49.63H35.14Z" class="cls-2"/><rect width="6.19" height="191.17" x="41.07" y="42.36" class="cls-4"/><rect width="3.23" height="191.17" x="43.49" y="42.36" class="cls-3"/><path d="M40.93,142.39a.67.67,0,0,1-.67-.67h0V138.1a.67.67,0,1,1,1.34,0v3.62a.66.66,0,0,1-.66.67Z" class="cls-2"/><path d="M40.93,148.41a.67.67,0,0,1-.67-.67V145.6a.67.67,0,1,1,1.34,0v2.14A.67.67,0,0,1,40.93,148.41Z" class="cls-2"/><path d="M47.39,234.1H41.2a.67.67,0,0,1-.67-.67V150.92a.67.67,0,1,1,1.34,0v81.83h4.85V42.93H41.87v90.43a.67.67,0,0,1-1.34,0V42.26a.67.67,0,0,1,.67-.68h6.19a.68.68,0,0,1,.68.68V233.43A.68.68,0,0,1,47.39,234.1Z" class="cls-2"/><path d="M45,101.6a.4.4,0,0,1-.4-.4V96.62a.4.4,0,0,1,.8,0v4.58A.4.4,0,0,1,45,101.6Z" class="cls-2"/><path d="M45,167.84a.4.4,0,0,1-.4-.41h0v-4.57a.4.4,0,1,1,.8,0v4.57a.4.4,0,0,1-.4.41Z" class="cls-2"/><path d="M45,161.11a.41.41,0,0,1-.4-.41V158a.4.4,0,0,1,.8,0v2.69A.41.41,0,0,1,45,161.11Z" class="cls-2"/><path d="M16.43,69.56H11.85a.41.41,0,0,1,0-.81h4.58a.41.41,0,0,1,0,.81Z" class="cls-2"/><path d="M22.35,69.56h-3.5a.41.41,0,0,1,0-.81h3.5a.41.41,0,1,1,0,.81Z" class="cls-2"/><path d="M43.89,214.42a.4.4,0,0,1-.4-.41v-4.57a.41.41,0,1,1,.81,0V214A.41.41,0,0,1,43.89,214.42Z" class="cls-2"/><path d="M.54,97.43a.54.54,0,0,1-.13-1.06c14-3.63,14.45-24.41,14.46-24.62a.54.54,0,1,1,1.08,0,42.66,42.66,0,0,1-2,11.31C11.4,90.86,6.81,95.81.68,97.41Z" class="cls-2"/><path d="M4.31,99.31a.54.54,0,0,1-.54-.53.55.55,0,0,1,.41-.53c14-3.62,14.45-26.27,14.46-26.5a.54.54,0,1,1,1.08,0,50.75,50.75,0,0,1-2,12.24c-2.54,8.42-7.13,13.7-13.26,15.3Z" class="cls-2"/><circle cx="41.11" cy="197.74" r="8.54" class="cls-8"/><circle cx="41.11" cy="197.74" r="8.54" class="cls-26"/><circle cx="41.11" cy="197.74" r="8.54" class="cls-25"/><circle cx="49.73" cy="197.16" r="8.54" class="cls-8"/><circle cx="49.73" cy="197.16" r="8.54" class="cls-26"/><circle cx="49.73" cy="197.16" r="8.54" class="cls-25"/><circle cx="60.83" cy="198.18" r="8.54" class="cls-8"/><circle cx="60.83" cy="198.18" r="8.54" class="cls-26"/><circle cx="60.83" cy="198.18" r="8.54" class="cls-25"/><path d="M72.73,194.36c-.44,0-34.62-2.78-34.62-2.78v-4.82s27.17-.88,36.52,3.51" class="cls-27"/><rect width="35.1" height="39.04" x="39.14" y="195.78" class="cls-27"/><rect width="2.26" height="39.04" x="39.14" y="195.78" class="cls-7"/><rect width="6.95" height="39.04" x="64.66" y="195.78" class="cls-8"/><rect width="35.1" height="39.04" x="39.14" y="195.78" class="cls-25"/><path d="M44.05,210.06v18.43" class="cls-28"/><path d="M48.73,200.06v28.43" class="cls-28"/><path d="M242.35,160.05H213.92" class="cls-47"/><path d="M41.33,187.81s13.22-.15,20.37.8" class="cls-29"/><path d="M72.73,194.36c-.44,0-34.62-2.78-34.62-2.78v-4.82s27.17-.88,36.52,3.51" class="cls-30"/><rect width="100.46" height="214.82" x="71.19" y="19.95" class="cls-12"/><rect width="14.16" height="5.63" x="71.15" y="208.34" class="cls-13" transform="translate(156.45 422.32) rotate(-180)"/><rect width="14.22" height="5.67" x="71.15" y="208.26" class="cls-48" transform="translate(156.51 422.19) rotate(-180)"/><rect width="19.93" height="214.82" x="151.72" y="19.95" class="cls-15"/><rect width="39.52" height="214.82" x="131.96" y="19.95" class="cls-15"/><rect width="47.3" height="2.22" x="116.74" y="201.89" class="cls-13"/><rect width="100.46" height="6.88" x="71.19" y="19.95" class="cls-13"/><rect width="41.73" height="50.93" x="88.03" y="53.97" class="cls-36"/><rect width="39.7" height="49.05" x="89.04" y="54.61" class="cls-49"/><rect width="41.55" height="1.09" x="88.18" y="79.75" class="cls-50"/><polyline points="171.66 103.75 171.66 234.77 71.19 234.77 71.19 153.32" class="cls-51"/><polyline points="71.19 124.02 71.19 19.95 171.66 19.95 171.66 92.46" class="cls-51"/><line x1="71.19" x2="71.19" y1="147" y2="142.08" class="cls-51"/><line x1="71.19" x2="71.19" y1="135.45" y2="130.53" class="cls-51"/><rect width="10.02" height="3.98" x="151.91" y="51.12" class="cls-13" transform="translate(313.85 106.21) rotate(-180)"/><rect width="10.06" height="4.01" x="151.91" y="51.06" class="cls-52" transform="translate(313.88 106.12) rotate(-180)"/><rect width="10.02" height="3.98" x="144.88" y="55.19" class="cls-13" transform="translate(299.77 114.36) rotate(-180)"/><rect width="10.06" height="4.01" x="144.88" y="55.13" class="cls-52" transform="translate(299.81 114.26) rotate(-180)"/><rect width="10.02" height="3.98" x="151.26" y="59.34" class="cls-13" transform="translate(312.54 122.66) rotate(-180)"/><rect width="10.06" height="4.01" x="151.26" y="59.28" class="cls-52" transform="translate(312.58 122.57) rotate(-180)"/><rect width="10.02" height="3.98" x="89.11" y="127.07" class="cls-13" transform="translate(188.24 258.12) rotate(-180)"/><rect width="10.06" height="4.01" x="89.11" y="127.01" class="cls-52" transform="translate(188.27 258.02) rotate(-180)"/><rect width="10.02" height="3.98" x="82.07" y="131.14" class="cls-13" transform="translate(174.16 266.26) rotate(-180)"/><rect width="10.06" height="4.01" x="82.07" y="131.08" class="cls-52" transform="translate(174.2 266.16) rotate(-180)"/><rect width="10.02" height="3.98" x="88.45" y="135.29" class="cls-13" transform="translate(186.93 274.57) rotate(-180)"/><rect width="10.06" height="4.01" x="88.45" y="135.23" class="cls-52" transform="translate(186.97 274.47) rotate(-180)"/><rect width="10.02" height="3.98" x="100.72" y="157.49" class="cls-13" transform="translate(211.46 318.97) rotate(-180)"/><rect width="10.06" height="4.01" x="100.72" y="157.43" class="cls-52" transform="translate(211.5 318.87) rotate(-180)"/><rect width="10.02" height="3.98" x="148.05" y="122.15" class="cls-13" transform="translate(306.11 248.28) rotate(-180)"/><rect width="10.06" height="4.01" x="148.05" y="122.09" class="cls-52" transform="translate(306.15 248.18) rotate(-180)"/><rect width="10.02" height="3.98" x="99.55" y="210.95" class="cls-13" transform="translate(209.13 425.88) rotate(-180)"/><rect width="10.06" height="4.01" x="99.55" y="210.89" class="cls-52" transform="translate(209.17 425.79) rotate(-180)"/><rect width="10.02" height="3.98" x="106.86" y="215.04" class="cls-13" transform="translate(223.73 434.06) rotate(-180)"/><rect width="10.06" height="4.01" x="106.86" y="214.98" class="cls-52" transform="translate(223.77 433.97) rotate(-180)"/><rect width="10.02" height="3.98" x="157.3" y="225.46" class="cls-13" transform="translate(324.61 454.9) rotate(-180)"/><rect width="10.06" height="4.01" x="157.3" y="225.4" class="cls-52" transform="translate(324.65 454.8) rotate(-180)"/><rect width="10.02" height="3.98" x="86.78" y="188.41" class="cls-13"/><rect width="10.06" height="4.01" x="86.74" y="188.35" class="cls-52"/><rect width="10.02" height="3.98" x="93.82" y="192.48" class="cls-13"/><rect width="10.06" height="4.01" x="93.78" y="192.42" class="cls-52"/><rect width="10.02" height="3.98" x="87.44" y="196.64" class="cls-13"/><rect width="10.06" height="4.01" x="87.4" y="196.58" class="cls-52"/><rect width="47.3" height="2.22" x="85.01" y="109.04" class="cls-13"/><rect width="114.34" height="8.63" x="63.7" y="13.88" class="cls-13"/><rect width="114.34" height="2.47" x="63.7" y="13.88" class="cls-53"/><polyline points="78.58 13.88 178.04 13.88 178.04 22.52 63.7 22.52 63.7 13.88 71.56 13.88" class="cls-54"/><line x1="67.46" x2="75.62" y1="18.24" y2="18.24" class="cls-55"/><line x1="78.59" x2="81.16" y1="18.24" y2="18.24" class="cls-55"/><rect width="41.73" height="50.93" x="119.05" y="147.05" class="cls-36"/><rect width="39.7" height="49.05" x="120.07" y="147.7" class="cls-49"/><polygon points="133.83 197.99 130.8 197.99 146.77 146.78 149.8 146.78 133.83 197.99" class="cls-7"/><polygon points="141.29 197.99 136.66 197.99 152.64 146.78 157.27 146.78 141.29 197.99" class="cls-7"/><line x1="160.76" x2="119.21" y1="172.36" y2="172.36" class="cls-56"/><rect width="41.55" height="1.09" x="119.21" y="172.83" class="cls-50"/><polyline points="129.9 146.9 160.78 146.9 160.78 197.83 119.05 197.83 119.05 146.9 126.25 146.9" class="cls-57"/><line x1="139.92" x2="139.92" y1="147.05" y2="197.67" class="cls-56"/><rect width="49.07" height="5.02" x="115.38" y="197.13" class="cls-58"/><rect width="49.07" height="2.8" x="115.38" y="199.35" class="cls-13"/><rect width="49.07" height="5.02" x="115.38" y="197.13" class="cls-59"/><circle cx="121.46" cy="118.36" r=".68" class="cls-13"/><circle cx="157.1" cy="213.88" r=".68" class="cls-13"/><circle cx="79.59" cy="230.83" r=".68" class="cls-13"/><circle cx="114.65" cy="117.19" r=".49" class="cls-13"/><circle cx="145.42" cy="230.05" r=".49" class="cls-13"/><circle cx="79.11" cy="222.55" r=".49" class="cls-13"/><circle cx="148.92" cy="219.92" r=".49" class="cls-13"/><circle cx="76.19" cy="47.96" r=".39" class="cls-13"/><circle cx="98.58" cy="42.9" r=".19" class="cls-13"/><circle cx="76.38" cy="89.64" r="1.17" class="cls-13"/><circle cx="78.72" cy="107.55" r=".78" class="cls-13"/><circle cx="75.89" cy="200.93" r=".49" class="cls-13"/><circle cx="77.35" cy="190.71" r=".58" class="cls-13"/><circle cx="89.89" cy="167.09" r=".58" class="cls-13"/><circle cx="127.01" cy="129.75" r="1.17" class="cls-13"/><circle cx="139.19" cy="45.14" r=".68" class="cls-60"/><circle cx="97.32" cy="17.97" r=".68" class="cls-60"/><circle cx="106.76" cy="17.1" r=".39" class="cls-60"/><circle cx="138.02" cy="18.36" r=".68" class="cls-60"/><circle cx="175.51" cy="15.93" r=".58" class="cls-60"/><circle cx="169.66" cy="17.68" r=".97" class="cls-60"/><circle cx="87.77" cy="18.75" r=".88" class="cls-60"/><circle cx="120.1" cy="18.36" r=".49" class="cls-60"/><path d="M122.92,184.32a.37.37,0,0,1-.12-.73l7-2.44a.36.36,0,0,1,.47.23.37.37,0,0,1-.22.47l-7,2.45Z" class="cls-2"/><path d="M124.11,186a.36.36,0,0,1-.36-.38.36.36,0,0,1,.24-.34l3.86-1.29a.37.37,0,0,1,.49.2.39.39,0,0,1-.21.49h0L124.23,186Z" class="cls-2"/><path d="M213.9,178.4a.37.37,0,0,1-.12-.72l7-2.45a.37.37,0,0,1,.25.7l-7,2.45Z" class="cls-2"/><path d="M215.09,180.11a.36.36,0,0,1-.36-.38.37.37,0,0,1,.24-.34l3.86-1.29a.37.37,0,1,1,.28.69h0l-3.86,1.29A.25.25,0,0,1,215.09,180.11Z" class="cls-2"/><circle cx="171.51" cy="97.91" r="1.31"/><circle cx="64.51" cy="230.42" r="2.08" class="cls-8"/><circle cx="63.16" cy="225.93" r=".37" class="cls-8"/><circle cx="55.13" cy="229.88" r=".37" class="cls-8"/><circle cx="57.72" cy="232.18" r=".33" class="cls-8"/><circle cx="60.28" cy="232.25" r=".84" class="cls-8"/><circle cx="63.64" cy="202.6" r="1.86" class="cls-8"/><circle cx="56.22" cy="203.73" r=".58" class="cls-8"/><circle cx="57.58" cy="209.83" r=".55" class="cls-8"/><circle cx="62.03" cy="216.4" r=".33" class="cls-8"/><line x1="164.5" x2="157.49" y1="199.47" y2="199.47" class="cls-59"/><line x1="154.93" x2="152.92" y1="199.47" y2="199.47" class="cls-59"/><rect width="371.58" height="8.15" x="11.73" y="232.1" class="cls-5"/><rect width="371.58" height="3.53" x="11.82" y="232.64" class="cls-7"/><rect width="371.58" height="8.15" x="11.73" y="232.62" class="cls-51"/><path d="M333.62,137.84l-26.83-28.09H220.53l-24.94,25.87a25.56,25.56,0,0,0-2,2.11,3.59,3.59,0,0,0-.51,1.29H193v.38a4.79,4.79,0,0,0,0,1.07v1.64a7.84,7.84,0,0,0,15.67-.18h0v-1.14h0v1.32a7.83,7.83,0,1,0,15.66-.18h0v-1h0v1.13a7.84,7.84,0,0,0,15.67-.18h0v-.75h0v.93a7.83,7.83,0,1,0,15.66-.18h0v-.55h0v.74a7.84,7.84,0,0,0,15.67-.18v-.36h0v.54a7.83,7.83,0,0,0,15.66-.18v-.17h0v.35a7.84,7.84,0,0,0,15.67-.16h0v.16a7.83,7.83,0,0,0,15.66-.18V139h0v3.1a7.84,7.84,0,0,0,15.67-.18V139Zm-104-27.76h-.37l.06-.11Z" class="cls-61"/><path d="M286,109.88,300.25,139s2.3,6.64-3.79,10.62l2.76-1s5.83-4.21,1.93-13.45-12.92-24.89-12.92-24.89Z" class="cls-62"/><path d="M267.41,110.08l3.65,27,.22,4.08s-1.12,6.62,4.37,7.92l2.28.88s5.58.42,7.72-3.87,1.08-7.08,1.08-7.08l-8.8-28.73Z" class="cls-7"/><path d="M285.43,146.1a7.78,7.78,0,0,1-7.82,3.76c1.28.25,3.14-.73,4.13-1.47a7.76,7.76,0,0,0,2.67-3.88c1.39-3.92-.31-8.1-1.35-12l-3-9.82-3.85-12.42-9-.18v0l10.51.21,4.48,14.36,2.83,8.9c1.11,4.06,2.79,8.26.56,12.28Z" class="cls-63"/><path d="M305,110.08l26.61,29.59s3.54,8.34-5.53,10.17c0,0,8.1,1,7.89-10l-.65-2.15-26.82-27.65Z" class="cls-62"/><path d="M229.32,109.75l-20.81,28.09v3.22s-1.29,8.37,6.87,9,8.93-7.06,8.93-7.06l-.14-3.67.43-2.36,14-27Z" class="cls-7"/><path d="M248.32,109.86,240,137.73l-.43,3s.13,7.75,5.86,8.92,8.17-1.91,8.77-2.95,1.25-6.19,1.25-6.19l3.43-30.87Z" class="cls-7"/><path d="M287.59,110.29l14.59,27.23.43,5.74s.45,6.92,6.77,6.71,8.71-6.27,8.71-6.27l0-4-20.82-29.59Z" class="cls-7"/><path d="M295.54,110.38l19.08,26.37a11.26,11.26,0,0,1,1.56,8.57,5.22,5.22,0,0,1-2.67,3.89s5.84-1.61,4.64-9.44c-.42-2.73-4-5.66-7.17-10.67a236.06,236.06,0,0,0-13.85-19.31Z" class="cls-63"/><path d="M266.25,109.65l3.1,29.16s1.21,10.39-6.8,10.88c0,0,9.17,1.57,8.84-10.34s-4-29.49-4-29.49Z" class="cls-62"/><path d="M256.9,110.08,253,137.52A11.08,11.08,0,0,1,249,149.75L253,148l2.14-4.72s3.65-33,3.22-33.23A3.3,3.3,0,0,0,256.9,110.08Z" class="cls-63"/><path d="M246.6,109.86l-8.8,29s2.36,7.29-4.11,11.17c0,0,7.54-2.37,5.94-10.46,0,0,9.54-29.23,9.11-29.44A8.6,8.6,0,0,0,246.6,109.86Z" class="cls-62"/><path d="M236.94,110.08l-15,28.51s3.83,7-4.52,11.46c0,0,7.74-1.59,6.67-10.6l14.8-29.59-2-.15Z" class="cls-63"/><path d="M227.18,109.8l-20.92,28.36s1.07,10.09-6.23,12c0,0,9.66-.86,8.37-10.73L229,110.08Z" class="cls-62"/><path d="M263.29,150.61a8.37,8.37,0,0,1-8.37-8.27v-3.1a.54.54,0,1,1,1.07,0v3.09a7.3,7.3,0,0,0,14.6-.17h0v-2.92a.54.54,0,1,1,1.07,0v2.91a8.37,8.37,0,0,1-8.27,8.46Z" class="cls-2"/><path d="M279,150.61a8.36,8.36,0,0,1-8.36-8.27v-3.1a.54.54,0,1,1,1.07,0v3.09a7.3,7.3,0,0,0,14.59-.17h0v-2.92a.54.54,0,1,1,1.07,0v2.91a8.37,8.37,0,0,1-8.27,8.46Z" class="cls-2"/><path d="M294.62,150.61a8.37,8.37,0,0,1-8.37-8.27v-3.1a.54.54,0,1,1,1.07,0v3.09a7.3,7.3,0,0,0,14.6-.17h0v-2.92a.54.54,0,1,1,1.07,0v2.91a8.37,8.37,0,0,1-8.27,8.46Z" class="cls-2"/><path d="M310.29,150.61a8.37,8.37,0,0,1-8.37-8.27v-3.1a.54.54,0,1,1,1.07,0v3.09a7.3,7.3,0,0,0,14.59-.17h0v-2.92a.54.54,0,1,1,1.07,0v2.91a8.37,8.37,0,0,1-8.27,8.46Z" class="cls-2"/><path d="M326,150.61a8.37,8.37,0,0,1-8.37-8.27v-3.1a.54.54,0,1,1,1.07,0v3.09a7.3,7.3,0,0,0,14.6-.17h0v-2.92a.54.54,0,1,1,1.07,0v2.91a8.37,8.37,0,0,1-8.27,8.46Z" class="cls-2"/><path d="M247.62,150.61a8.36,8.36,0,0,1-8.36-8.27v-3.1a.54.54,0,1,1,1.07,0v3.09a7.3,7.3,0,0,0,14.59-.17h0v-2.92a.54.54,0,1,1,1.07,0v2.91a8.37,8.37,0,0,1-8.27,8.46Z" class="cls-2"/><path d="M232,150.61a8.37,8.37,0,0,1-8.37-8.27v-3.1a.54.54,0,1,1,1.07,0v3.09a7.3,7.3,0,0,0,14.6-.17h0v-2.92a.54.54,0,1,1,1.07,0v2.91a8.37,8.37,0,0,1-8.27,8.46Z" class="cls-2"/><path d="M216.29,150.61a8.36,8.36,0,0,1-8.36-8.27v-3.1a.54.54,0,1,1,1.07,0v3.09a7.3,7.3,0,0,0,14.59-.17h0v-2.92a.54.54,0,1,1,1.07,0v2.91a8.37,8.37,0,0,1-8.27,8.46Z" class="cls-2"/><path d="M200.63,150.61a8.37,8.37,0,0,1-8.37-8.27v-3.1a.54.54,0,1,1,1.07,0v3.09a7.3,7.3,0,0,0,14.6-.17h0v-2.92a.54.54,0,1,1,1.07,0v2.91a8.37,8.37,0,0,1-8.27,8.46Z" class="cls-2"/><path d="M255.5,138.16h-.05a.53.53,0,0,1-.48-.59l3.22-27.66a.54.54,0,1,1,1.07.12L256,137.68A.53.53,0,0,1,255.5,138.16Z" class="cls-2"/><path d="M269,120.84a.53.53,0,0,1-.53-.48L267.2,110a.54.54,0,0,1,.48-.59.54.54,0,0,1,.59.48l1.29,10.34a.53.53,0,0,1-.48.59Z" class="cls-2"/><path d="M269.71,127.58a.53.53,0,0,1-.53-.48l-.37-3.52a.54.54,0,0,1,.48-.59.53.53,0,0,1,.59.48l.36,3.51a.52.52,0,0,1-.47.59h-.06Z" class="cls-2"/><path d="M271,138.16a.53.53,0,0,1-.53-.48l-.73-7.11a.53.53,0,0,1,.48-.59.54.54,0,0,1,.59.48l.74,7.11a.54.54,0,0,1-.48.59Z" class="cls-2"/><path d="M286.41,138.59a.53.53,0,0,1-.52-.4l-8.37-28.08a.54.54,0,0,1,1-.28l8.36,28.09a.53.53,0,0,1-.38.66Z" class="cls-2"/><path d="M302.29,138.59a.53.53,0,0,1-.49-.31l-14.38-28.09a.54.54,0,0,1,1-.45l14.37,28.09a.53.53,0,0,1-.26.71A.44.44,0,0,1,302.29,138.59Z" class="cls-2"/><path d="M224.39,138.59a.54.54,0,0,1-.22-.05.53.53,0,0,1-.26-.7h0l14.38-28.09a.53.53,0,0,1,.71-.26.53.53,0,0,1,.26.71l-14.37,28.09A.54.54,0,0,1,224.39,138.59Z" class="cls-2"/><path d="M222.57,119.94a.54.54,0,0,1-.59-.48.52.52,0,0,1,.06-.3l5.79-8.81a.55.55,0,0,1,.72-.26.53.53,0,0,1,.26.71s0,0,0,0l-5.8,8.81A.54.54,0,0,1,222.57,119.94Z" class="cls-2"/><path d="M217.93,126.1a.54.54,0,0,1-.52-.55.63.63,0,0,1,.1-.3l3-4.18a.54.54,0,0,1,.88.62l-3,4.18A.53.53,0,0,1,217.93,126.1Z" class="cls-2"/><path d="M208.72,138.59a.53.53,0,0,1-.53-.53.55.55,0,0,1,.09-.3l7.57-10.18a.53.53,0,0,1,.75-.12.55.55,0,0,1,.15.71l-7.58,10.18A.52.52,0,0,1,208.72,138.59Z" class="cls-2"/><path d="M317.74,138.59a.53.53,0,0,1-.45-.24L296.9,110.47a.54.54,0,0,1,.88-.62.08.08,0,0,0,0,0l20.39,27.87a.55.55,0,0,1-.16.75A.6.6,0,0,1,317.74,138.59Z" class="cls-2"/><path d="M333.4,138.59a.53.53,0,0,1-.41-.19l-26.82-28.08a.55.55,0,0,1,0-.76.53.53,0,0,1,.76,0l0,0,26.83,28.09a.54.54,0,0,1-.06.75A.51.51,0,0,1,333.4,138.59Z" class="cls-2"/><path d="M193.49,138.59a.54.54,0,0,1-.54-.53.56.56,0,0,1,.13-.35l26.82-28.09a.53.53,0,0,1,.76,0,.54.54,0,0,1,.06.72L193.9,138.4A.56.56,0,0,1,193.49,138.59Z" class="cls-2"/><path d="M243.43,127.33l-.14,0a.53.53,0,0,1-.38-.65h0l5-16.82a.54.54,0,0,1,1,.28l-5,16.82A.56.56,0,0,1,243.43,127.33Z" class="cls-2"/><path d="M240.05,138.59h-.13a.55.55,0,0,1-.39-.66l2.31-8.68c.06-.29.35,1,.64,1s.47-1.11.41-.82v0l-2.31,8.68A.53.53,0,0,1,240.05,138.59Z" class="cls-2"/><path d="M306.58,110.5H220.31a.54.54,0,1,1,0-1.07h86.27a.54.54,0,0,1,0,1.07Z" class="cls-2"/><path d="M244.52,123.08a.32.32,0,0,1-.32-.32.33.33,0,0,1,.22-.31l6.08-2.11a.32.32,0,0,1,.21.61l-6.07,2.11A.25.25,0,0,1,244.52,123.08Z" class="cls-2"/><path d="M245.56,124.56a.32.32,0,0,1-.32-.33.31.31,0,0,1,.21-.29l3.34-1.12a.33.33,0,0,1,.42.18.32.32,0,0,1-.18.42h0l-3.34,1.12Z" class="cls-2"/><path d="M300.75,134.5a.32.32,0,0,1-.33-.32.33.33,0,0,1,.22-.31l6.08-2.11a.32.32,0,0,1,.22.61l-6.08,2.11Z" class="cls-2"/><path d="M302,136.2a.32.32,0,0,1-.31-.33.3.3,0,0,1,.21-.3l3.34-1.11a.32.32,0,0,1,.42.17.33.33,0,0,1-.18.42h0l-3.33,1.12Z" class="cls-2"/><circle cx="268.49" cy="136.66" r="1.72" class="cls-62"/><circle cx="283.94" cy="139.88" r="1.72" class="cls-63"/><circle cx="276.75" cy="121.06" r="1.82" class="cls-63"/><circle cx="276.32" cy="117.84" r=".54" class="cls-63"/><circle cx="219.99" cy="140.09" r="3" class="cls-63"/><circle cx="330.5" cy="140.09" r="1.72" class="cls-62"/><circle cx="328.04" cy="137.84" r=".54" class="cls-62"/><circle cx="281.36" cy="136.66" r=".64" class="cls-63"/><circle cx="266.34" cy="134.3" r=".64" class="cls-62"/><circle cx="217.41" cy="135.37" r="1.07" class="cls-63"/><path d="M333.62,139.13H193.17a.54.54,0,1,1,0-1.07H333.62a.54.54,0,0,1,0,1.07Z" class="cls-2"/><path d="M279.11,117.84h0a2,2,0,0,0-2,2,2.05,2.05,0,0,0,.06.49l2.21,8.85c.23.9,1,.07,1.95.07h1.22Z" class="cls-63"/><rect width="57.12" height="8.19" x="209.73" y="155.96" class="cls-38"/><polygon points="102.8 104.9 99.77 104.9 115.74 53.7 118.77 53.7 102.8 104.9" class="cls-7"/><polygon points="110.27 104.9 105.64 104.9 121.61 53.7 126.24 53.7 110.27 104.9" class="cls-7"/><polyline points="98.87 53.81 129.76 53.81 129.76 104.74 88.03 104.74 88.03 53.81 95.22 53.81" class="cls-57"/><line x1="108.89" x2="108.89" y1="53.97" y2="104.59" class="cls-56"/><rect width="49.07" height="5.02" x="84.35" y="104.05" class="cls-58"/><rect width="49.07" height="2.8" x="84.35" y="106.26" class="cls-13"/><rect width="49.07" height="5.02" x="84.35" y="104.05" class="cls-59"/><polygon points="347.07 82.91 345.52 82.91 342.79 59.42 344.74 59.42 347.07 82.91" class="cls-7"/><polygon points="350.26 82.99 348.29 82.92 346.1 59.34 348.06 59.41 350.26 82.99" class="cls-64"/><polygon points="357.24 82.91 344.09 82.91 341.09 59.42 360.24 59.42 357.24 82.91" class="cls-47"/><line x1="353.26" x2="353.26" y1="137.84" y2="146.99" class="cls-38"/><line x1="350.16" x2="350.16" y1="59.42" y2="91.57" class="cls-38"/><line x1="366.24" x2="334.09" y1="59.37" y2="59.37" class="cls-38"/><line x1="201.43" x2="191.21" y1="158.61" y2="158.61" class="cls-38"/><path d="M198.43,155.79H202a0,0,0,0,1,0,0V162a0,0,0,0,1,0,0h-3.58a.9.9,0,0,1-.9-.9V156.7A.9.9,0,0,1,198.43,155.79Z"/><line x1="194.5" x2="194.5" y1="159.18" y2="170.42" class="cls-47"/><circle cx="194.12" cy="172.82" r="2.39" class="cls-47"/><rect width="6.94" height="12.86" x="121.42" y="90.52" class="cls-50"/><rect width="5.79" height="32.48" x="92.45" y="70.9" class="cls-50"/><line x1="129.73" x2="88.18" y1="79.28" y2="79.28" class="cls-56"/><circle cx="151.34" cy="189.29" r="5.4" class="cls-50"/><rect width="8.77" height="3.68" x="146.95" y="192.42" class="cls-50"/><line x1="77.36" x2="81.82" y1="57.65" y2="57.65" class="cls-65"/><line x1="135.11" x2="144.57" y1="67.14" y2="67.14" class="cls-65"/><line x1="303.09" x2="312.55" y1="162.97" y2="162.97" class="cls-65"/><line x1="161.82" x2="171.28" y1="32.44" y2="32.44" class="cls-65"/><line x1="154.19" x2="158.65" y1="32.44" y2="32.44" class="cls-65"/><line x1="154.09" x2="171.55" y1="77.33" y2="77.33" class="cls-65"/><line x1="146.7" x2="149.16" y1="77.33" y2="77.33" class="cls-65"/><line x1="165.55" x2="165.55" y1="71.87" y2="82.47" class="cls-65"/><line x1="165.55" x2="165.55" y1="87.19" y2="89.79" class="cls-65"/><line x1="307.4" x2="324.86" y1="158.76" y2="158.76" class="cls-65"/><line x1="297.02" x2="302.48" y1="158.76" y2="158.76" class="cls-65"/><line x1="110.56" x2="138.02" y1="122.89" y2="122.89" class="cls-65"/><line x1="135.49" x2="135.49" y1="116.32" y2="127.92" class="cls-65"/><line x1="135.49" x2="135.49" y1="132.65" y2="135.24" class="cls-65"/><line x1="141.43" x2="143.76" y1="122.89" y2="122.89" class="cls-65"/><line x1="104.63" x2="77.17" y1="176.44" y2="176.44" class="cls-66"/><line x1="79.7" x2="79.7" y1="181.01" y2="168.41" class="cls-66"/><line x1="79.7" x2="79.7" y1="165.68" y2="163.08" class="cls-66"/><line x1="73.76" x2="71.42" y1="176.44" y2="176.44" class="cls-66"/><line x1="105.75" x2="110.56" y1="199.64" y2="199.64" class="cls-65"/><line x1="155.79" x2="163.6" y1="142.82" y2="142.82" class="cls-65"/><line x1="83.39" x2="118.77" y1="38.77" y2="38.77" class="cls-65"/><line x1="90.6" x2="90.6" y1="33.9" y2="43.09" class="cls-65"/></g></g></svg>